<svg width="24" height="24" viewBox="0 0 24 24" fill="none" xmlns="http://www.w3.org/2000/svg">
<path d="M17 18C15.89 18 15 18.89 15 20C15 20.5304 15.2107 21.0391 15.5858 21.4142C15.9609 21.7893 16.4696 22 17 22C17.5304 22 18.0391 21.7893 18.4142 21.4142C18.7893 21.0391 19 20.5304 19 20C19 19.4696 18.7893 18.9609 18.4142 18.5858C18.0391 18.2107 17.5304 18 17 18ZM1 2V4H3L6.6 11.59L5.24 14.04C5.09 14.32 5 14.65 5 15C5 15.5304 5.21071 16.0391 5.58579 16.4142C5.96086 16.7893 6.46957 17 7 17H19V15H7.42C7.3537 15 7.29011 14.9737 7.24322 14.9268C7.19634 14.8799 7.17 14.8163 7.17 14.75C7.17 14.7 7.18 14.66 7.2 14.63L8.1 13H15.55C16.3 13 16.96 12.58 17.3 11.97L20.88 5.5C20.95 5.34 21 5.17 21 5C21 4.73478 20.8946 4.48043 20.7071 4.29289C20.5196 4.10536 20.2652 4 20 4H5.21L4.27 2M7 18C5.89 18 5 18.89 5 20C5 20.5304 5.21071 21.0391 5.58579 21.4142C5.96086 21.7893 6.46957 22 7 22C7.53043 22 8.03914 21.7893 8.41421 21.4142C8.78929 21.0391 9 20.5304 9 20C9 19.4696 8.78929 18.9609 8.41421 18.5858C8.03914 18.2107 7.53043 18 7 18Z" fill="#4BAF50"/>
<g clip-path="url(#clip0_119_126)">
<path d="M13.8134 8.80325C13.7583 9.22323 13.5899 9.62031 13.3263 9.95188C13.0627 10.2835 12.7139 10.537 12.3171 10.6854C11.9204 10.8337 11.4907 10.8713 11.0742 10.794C10.6577 10.7168 10.2702 10.5276 9.95302 10.2468C9.63589 9.96599 9.40118 9.60416 9.27406 9.2001C9.14694 8.79604 9.1322 8.365 9.23144 7.95321C9.33068 7.54141 9.54013 7.1644 9.83735 6.8626C10.1346 6.5608 10.5083 6.3456 10.9186 6.24008C12.0558 5.94841 13.2329 6.53379 13.6675 7.62462" stroke="#F2FFEC" strokeWidth="0.583333" stroke-linecap="round" stroke-linejoin="round"/>
<path d="M13.8333 6.1665V7.62484H12.375" stroke="#F2FFEC" stroke-width="0.583333" stroke-linecap="round" stroke-linejoin="round"/>
</g>
<defs>
<clipPath id="clip0_119_126">
<rect width="7" height="7" fill="white" transform="translate(8 5)"/>
</clipPath>
</defs>
</svg>
